<svg width="60" height="60" viewBox="0 0 60 60" fill="none" xmlns="http://www.w3.org/2000/svg">
<circle cx="30" cy="30" r="30" fill="#9E00FF"/>
<path d="M46.4062 21.375C46.4062 21.1699 46.2012 20.9648 46.0645 20.8965L30.2051 14.8809C30.1367 14.8809 30.0684 14.8809 29.9316 14.8809C29.8633 14.8809 29.7949 14.8809 29.7266 14.8809L13.8672 20.8965C13.7305 20.9648 13.5938 21.1699 13.5938 21.375V22.4688C13.5938 22.8105 13.7988 23.0156 14.1406 23.0156H15.7812V23.8359C15.7812 24.3145 16.123 24.6562 16.6016 24.6562H43.3984C43.8086 24.6562 44.2188 24.3145 44.2188 23.8359V23.0156H45.8594C46.1328 23.0156 46.4062 22.8105 46.4062 22.4688V21.375ZM44.7656 42.1562H15.2344C14.2773 42.1562 13.5938 42.9082 13.5938 43.7969V44.8906C13.5938 45.2324 13.7988 45.4375 14.1406 45.4375H45.8594C46.1328 45.4375 46.4062 45.2324 46.4062 44.8906V43.7969C46.4062 42.9082 45.6543 42.1562 44.7656 42.1562ZM19.0625 25.75V38.875H16.6016C16.123 38.875 15.7812 39.2852 15.7812 39.6953V41.0625H44.2188V39.6953C44.2188 39.2852 43.8086 38.875 43.3984 38.875H40.9375V25.75H36.5625V38.875H32.1875V25.75H27.8125V38.875H23.4375V25.75H19.0625Z" fill="#FEFAFA"/>
</svg>
