<svg width="100" height="100" viewBox="0 0 100 100" fill="none" xmlns="http://www.w3.org/2000/svg">
<circle cx="50" cy="50" r="50" fill="#9E00FF"/>
<path d="M66.4062 40.875C66.4062 40.6699 66.2012 40.4648 66.0645 40.3965L50.2051 34.3809C50.1367 34.3809 50.0684 34.3809 49.9316 34.3809C49.8633 34.3809 49.7949 34.3809 49.7266 34.3809L33.8672 40.3965C33.7305 40.4648 33.5938 40.6699 33.5938 40.875V41.9688C33.5938 42.3105 33.7988 42.5156 34.1406 42.5156H35.7812V43.3359C35.7812 43.8145 36.123 44.1562 36.6016 44.1562H63.3984C63.8086 44.1562 64.2188 43.8145 64.2188 43.3359V42.5156H65.8594C66.1328 42.5156 66.4062 42.3105 66.4062 41.9688V40.875ZM64.7656 61.6562H35.2344C34.2773 61.6562 33.5938 62.4082 33.5938 63.2969V64.3906C33.5938 64.7324 33.7988 64.9375 34.1406 64.9375H65.8594C66.1328 64.9375 66.4062 64.7324 66.4062 64.3906V63.2969C66.4062 62.4082 65.6543 61.6562 64.7656 61.6562ZM39.0625 45.25V58.375H36.6016C36.123 58.375 35.7812 58.7852 35.7812 59.1953V60.5625H64.2188V59.1953C64.2188 58.7852 63.8086 58.375 63.3984 58.375H60.9375V45.25H56.5625V58.375H52.1875V45.25H47.8125V58.375H43.4375V45.25H39.0625Z" fill="#FEFAFA"/>
</svg>
