<svg width="58" height="68" viewBox="0 0 58 68" fill="none" xmlns="http://www.w3.org/2000/svg">
<path d="M28.2121 45.7598L19.261 41.3896C20.3127 39.2949 21.3619 37.5613 22.4088 36.1887C23.4905 34.8041 24.7202 33.6802 26.098 32.817C27.4992 31.9652 29.1521 31.2507 31.0567 30.6737C32.6364 30.2278 34.0529 29.7602 35.3061 29.2708C36.5593 28.7814 37.6485 28.183 38.5735 27.4754C39.51 26.7445 40.2639 25.794 40.8351 24.6239C41.4978 23.2666 41.8356 22.0405 41.8485 20.9456C41.8963 19.8387 41.6249 18.8513 41.0343 17.9834C40.4672 17.1269 39.5752 16.4016 38.3583 15.8075C37.352 15.3162 36.3074 15.0815 35.2245 15.1034C34.153 15.1019 33.1193 15.4086 32.1235 16.0237C31.1511 16.6502 30.2991 17.6831 29.5673 19.1226L19.3876 14.1526C21.0231 10.9808 23.0513 8.69638 25.4723 7.29916C27.928 5.88997 30.595 5.26493 33.4733 5.42405C36.3629 5.55977 39.2938 6.35313 42.2658 7.80415C45.542 9.40369 48.0874 11.313 49.902 13.532C51.728 15.7276 52.7584 18.1578 52.9933 20.8227C53.2395 23.4641 52.6486 26.2475 51.2204 29.1727C50.2264 31.2086 48.9431 32.828 47.3706 34.0308C45.8094 35.2103 44.054 36.1644 42.1042 36.8933C40.1545 37.6222 38.0532 38.3351 35.8003 39.0319C33.8837 39.5741 32.3598 40.3805 31.2285 41.4511C30.1207 42.5331 29.1152 43.9693 28.2121 45.7598ZM12.9123 51.7221C13.6435 50.2244 14.7639 49.2354 16.2734 48.7553C17.7944 48.2517 19.4207 48.4227 21.1524 49.2682C22.8607 50.1022 23.9841 51.2737 24.5224 52.7827C25.0956 54.2797 25.0166 55.7771 24.2854 57.2748C23.577 58.7257 22.4507 59.6972 20.9063 60.1893C19.3854 60.6928 17.7707 60.5276 16.0624 59.6936C14.3307 58.8481 13.1957 57.6709 12.6573 56.1619C12.1189 54.6529 12.2039 53.173 12.9123 51.7221Z" fill="black"/>
</svg>
