<svg width="18" height="19" viewBox="0 0 18 19" fill="none" xmlns="http://www.w3.org/2000/svg">
<path d="M11.25 3.625H6.75L5.0625 1.12891C4.81641 0.777344 5.09766 0.25 5.51953 0.25H12.4453C12.8672 0.25 13.1484 0.777344 12.9023 1.12891L11.25 3.625ZM6.75 4.75H11.25C11.3555 4.85547 11.5312 4.96094 11.6719 5.06641C13.6758 6.33203 18 9.07422 18 14.875C18 16.7383 16.4883 18.25 14.625 18.25H3.375C1.47656 18.25 0 16.7383 0 14.875C0 9.07422 4.28906 6.33203 6.29297 5.06641C6.43359 4.96094 6.60938 4.85547 6.75 4.75ZM9.70312 8.125C9.70312 7.73828 9.38672 7.42188 8.96484 7.42188C8.57812 7.42188 8.26172 7.73828 8.26172 8.125V8.33594C8.08594 8.40625 7.875 8.44141 7.73438 8.54688C7.20703 8.75781 6.75 9.21484 6.60938 9.84766C6.57422 10.1992 6.60938 10.5508 6.75 10.8672C6.89062 11.1836 7.13672 11.3945 7.34766 11.5703C7.76953 11.8516 8.29688 11.9922 8.71875 12.1328H8.78906C9.28125 12.3086 9.59766 12.4141 9.80859 12.5547C9.91406 12.625 9.94922 12.6602 9.94922 12.6953C9.94922 12.7305 9.98438 12.8008 9.94922 12.9414C9.94922 13.0469 9.87891 13.1523 9.66797 13.2578C9.45703 13.3281 9.10547 13.3633 8.64844 13.293C8.4375 13.2578 8.08594 13.1523 7.73438 13.0469C7.66406 13.0117 7.59375 12.9766 7.52344 12.9414C7.13672 12.8359 6.75 13.0469 6.64453 13.3984C6.50391 13.7852 6.71484 14.1719 7.06641 14.2773C7.10156 14.3125 7.17188 14.3125 7.24219 14.3477C7.48828 14.4531 7.94531 14.5938 8.26172 14.6641V14.875C8.26172 15.2969 8.57812 15.6133 8.96484 15.6133C9.38672 15.6133 9.70312 15.2969 9.70312 14.875V14.6992C9.87891 14.6641 10.0547 14.5938 10.2305 14.5234C10.793 14.3125 11.2148 13.8555 11.3555 13.1875C11.3906 12.8008 11.3906 12.4492 11.25 12.1328C11.1094 11.8164 10.8633 11.6055 10.6523 11.4297C10.2305 11.1133 9.63281 10.9375 9.21094 10.7969H9.17578C8.68359 10.6562 8.36719 10.5508 8.15625 10.4102C8.05078 10.3398 8.01562 10.3047 8.01562 10.2695C8.01562 10.2695 7.98047 10.2344 8.01562 10.0938C8.01562 10.0234 8.08594 9.91797 8.29688 9.8125C8.50781 9.70703 8.85938 9.67188 9.31641 9.70703C9.45703 9.74219 9.94922 9.84766 10.0547 9.88281C10.4414 9.98828 10.8281 9.74219 10.9336 9.39062C11.0391 9.00391 10.793 8.61719 10.4414 8.51172C10.2656 8.47656 9.91406 8.40625 9.70312 8.37109V8.125Z" fill="#EE874D"/>
</svg>
