<svg width="14" height="16" viewBox="0 0 14 16" fill="none" xmlns="http://www.w3.org/2000/svg">
<path d="M6.5625 8.375C8.61328 8.375 10.3125 6.70508 10.3125 4.625C10.3125 2.57422 8.61328 0.875 6.5625 0.875C4.48242 0.875 2.8125 2.57422 2.8125 4.625C2.8125 6.70508 4.48242 8.375 6.5625 8.375ZM9.16992 9.3125H8.67188C8.02734 9.63477 7.32422 9.78125 6.5625 9.78125C5.80078 9.78125 5.06836 9.63477 4.42383 9.3125H3.92578C1.75781 9.3125 0 11.0996 0 13.2676V14.4688C0 15.2598 0.615234 15.875 1.40625 15.875H11.7188C12.4805 15.875 13.125 15.2598 13.125 14.4688V13.2676C13.125 11.0996 11.3379 9.3125 9.16992 9.3125Z" fill="#54AA76"/>
</svg>
