<svg width="27" height="16" viewBox="0 0 27 16" fill="none" xmlns="http://www.w3.org/2000/svg">
<path d="M25.2969 4.51562L14.3984 1.15625C13.8125 0.960938 13.1484 0.960938 12.5625 1.15625L1.66406 4.51562C0.765625 4.78906 0.765625 6 1.66406 6.27344L3.57812 6.85938C3.14844 7.36719 2.91406 8.03125 2.875 8.69531C2.48438 8.92969 2.25 9.32031 2.25 9.75C2.25 10.1797 2.44531 10.5312 2.75781 10.7656L1.78125 15.2578C1.70312 15.6484 1.97656 16 2.36719 16H4.59375C4.98438 16 5.25781 15.6484 5.17969 15.2578L4.20312 10.7656C4.51562 10.5312 4.75 10.1797 4.75 9.75C4.75 9.32031 4.47656 8.92969 4.125 8.73438C4.16406 8.14844 4.4375 7.60156 4.94531 7.28906L12.5625 9.63281C12.9141 9.75 13.6172 9.86719 14.3984 9.63281L25.2969 6.27344C26.1953 6 26.1953 4.78906 25.2969 4.51562ZM14.75 10.8438C13.6562 11.1562 12.6797 11 12.2109 10.8438L6.54688 9.08594L6 13.5C6 14.9062 9.32031 16 13.5 16C17.6406 16 21 14.9062 21 13.5L20.4141 9.08594L14.75 10.8438Z" fill="#8CD1CD"/>
</svg>
