<svg width="18" height="19" viewBox="0 0 18 19" fill="none" xmlns="http://www.w3.org/2000/svg">
<path d="M18 6.47266C18 3.02734 15.2227 0.25 11.7773 0.25C8.36719 0.285156 5.625 3.02734 5.625 6.4375C5.625 7.14062 5.73047 7.77344 5.90625 8.40625L0.246094 14.0664C0.0703125 14.2422 0 14.4531 0 14.6641V17.4062C0 17.8984 0.351562 18.25 0.84375 18.25H4.78125C5.23828 18.25 5.625 17.8984 5.625 17.4062V16H7.03125C7.48828 16 7.875 15.6484 7.875 15.1562V13.75H9.17578C9.42188 13.75 9.63281 13.6445 9.80859 13.4688L10.6523 12.5195C11.0039 12.5898 11.3906 12.625 11.8125 12.625C15.2227 12.625 18 9.88281 18 6.47266ZM11.8125 4.75C11.8125 3.83594 12.5508 3.0625 13.5 3.0625C14.4141 3.0625 15.1875 3.83594 15.1875 4.75C15.1875 5.69922 14.4141 6.4375 13.5 6.4375C12.5508 6.4375 11.8125 5.69922 11.8125 4.75Z" fill="#9E00FF"/>
</svg>
