<svg width="40" height="40" viewBox="0 0 40 40" fill="none" xmlns="http://www.w3.org/2000/svg">
<circle cx="20" cy="20" r="20" fill="#F1EDED"/>
<path d="M33 14.1562C33 12.8867 31.9258 11.8125 30.6562 11.8125H26.3594L25.7246 10.25C25.3828 9.32227 24.5039 8.6875 23.5273 8.6875H17.4238C16.4473 8.6875 15.5684 9.32227 15.2266 10.25L14.6406 11.8125H10.3438C9.02539 11.8125 8 12.8867 8 14.1562V28.2188C8 29.5371 9.02539 30.5625 10.3438 30.5625H30.6562C31.9258 30.5625 33 29.5371 33 28.2188V14.1562ZM26.3594 21.1875C26.3594 24.459 23.7227 27.0469 20.5 27.0469C17.2285 27.0469 14.6406 24.459 14.6406 21.1875C14.6406 17.9648 17.2285 15.3281 20.5 15.3281C23.7227 15.3281 26.3594 17.9648 26.3594 21.1875ZM24.7969 21.1875C24.7969 18.8438 22.8438 16.8906 20.5 16.8906C18.1074 16.8906 16.2031 18.8438 16.2031 21.1875C16.2031 23.5801 18.1074 25.4844 20.5 25.4844C22.8438 25.4844 24.7969 23.5801 24.7969 21.1875Z" fill="#D6D6D6"/>
</svg>
