<svg width="100" height="100" viewBox="0 0 100 100" fill="none" xmlns="http://www.w3.org/2000/svg">
<circle cx="50" cy="50" r="50" fill="#FEFAFA"/>
<path d="M50 50C56.8359 50 62.5 44.4336 62.5 37.5C62.5 30.6641 56.8359 25 50 25C43.0664 25 37.5 30.6641 37.5 37.5C37.5 44.4336 43.0664 50 50 50ZM58.6914 53.125H57.0312C54.8828 54.1992 52.5391 54.6875 50 54.6875C47.4609 54.6875 45.0195 54.1992 42.8711 53.125H41.2109C33.9844 53.125 28.125 59.082 28.125 66.3086V70.3125C28.125 72.9492 30.1758 75 32.8125 75H67.1875C69.7266 75 71.875 72.9492 71.875 70.3125V66.3086C71.875 59.082 65.918 53.125 58.6914 53.125Z" fill="#9E00FF"/>
</svg>
