<svg width="14" height="19" viewBox="0 0 14 19" fill="none" xmlns="http://www.w3.org/2000/svg">
<path d="M13.2539 3.94141L9.80859 0.496094C9.63281 0.355469 9.42188 0.25 9.21094 0.25H9V4.75H13.5V4.53906C13.5 4.32812 13.3945 4.11719 13.2539 3.94141ZM7.875 5.03125V0.25H0.84375C0.351562 0.25 0 0.636719 0 1.09375V17.4062C0 17.8984 0.351562 18.25 0.84375 18.25H12.6562C13.1133 18.25 13.5 17.8984 13.5 17.4062V5.875H8.71875C8.22656 5.875 7.875 5.52344 7.875 5.03125ZM2.25 2.78125C2.25 2.64062 2.35547 2.5 2.53125 2.5H5.34375C5.48438 2.5 5.625 2.64062 5.625 2.78125V3.34375C5.625 3.51953 5.48438 3.625 5.34375 3.625H2.53125C2.35547 3.625 2.25 3.51953 2.25 3.34375V2.78125ZM2.25 5.59375V5.03125C2.25 4.89062 2.35547 4.75 2.53125 4.75H5.34375C5.48438 4.75 5.625 4.89062 5.625 5.03125V5.59375C5.625 5.76953 5.48438 5.875 5.34375 5.875H2.53125C2.35547 5.875 2.25 5.76953 2.25 5.59375ZM7.3125 14.875V15.7188C7.3125 15.8945 7.17188 16 7.03125 16H6.46875C6.29297 16 6.1875 15.8945 6.1875 15.7188V14.875C5.76562 14.875 5.37891 14.7344 5.0625 14.4883C4.92188 14.3828 4.92188 14.1719 5.0625 14.0664L5.44922 13.6797C5.55469 13.5742 5.69531 13.5742 5.80078 13.6445C5.94141 13.7148 6.11719 13.75 6.25781 13.75H7.24219C7.48828 13.75 7.66406 13.5742 7.66406 13.293C7.66406 13.082 7.55859 12.9062 7.34766 12.8711L5.76562 12.3789C5.13281 12.168 4.67578 11.5703 4.67578 10.8672C4.67578 9.98828 5.34375 9.28516 6.15234 9.28516V8.40625C6.15234 8.26562 6.29297 8.125 6.43359 8.125H6.99609C7.17188 8.125 7.27734 8.26562 7.27734 8.40625V9.28516C7.69922 9.28516 8.08594 9.42578 8.40234 9.67188C8.54297 9.77734 8.54297 9.98828 8.40234 10.0938L8.01562 10.4805C7.91016 10.5859 7.76953 10.5859 7.66406 10.5156C7.52344 10.4453 7.34766 10.375 7.20703 10.375H6.22266C5.97656 10.375 5.80078 10.5859 5.80078 10.8672C5.80078 11.0781 5.90625 11.2539 6.11719 11.2891L7.69922 11.7812C8.33203 11.957 8.78906 12.5898 8.78906 13.293C8.78906 14.1719 8.12109 14.875 7.3125 14.875Z" fill="#767373"/>
</svg>
