<svg width="23" height="19" viewBox="0 0 23 19" fill="none" xmlns="http://www.w3.org/2000/svg">
<path d="M0 8.125V17.6875C0 18.0039 0.246094 18.25 0.5625 18.25H3.375V7H1.125C0.492188 7 0 7.52734 0 8.125ZM12.6562 6.4375H11.8125V5.03125C11.8125 4.89062 11.6719 4.75 11.5312 4.75H10.9688C10.793 4.75 10.6875 4.89062 10.6875 5.03125V7.28125C10.6875 7.45703 10.793 7.5625 10.9688 7.5625H12.6562C12.7969 7.5625 12.9375 7.45703 12.9375 7.28125V6.71875C12.9375 6.57812 12.7969 6.4375 12.6562 6.4375ZM17.4727 4.22266L11.8477 0.460938C11.6719 0.320312 11.4609 0.285156 11.25 0.285156C11.0039 0.285156 10.793 0.320312 10.6172 0.460938L4.99219 4.22266C4.67578 4.39844 4.5 4.75 4.5 5.13672V18.25H9V13.1875C9 12.9062 9.24609 12.625 9.5625 12.625H12.9375C13.2188 12.625 13.5 12.9062 13.5 13.1875V18.25H18V5.13672C18 4.75 17.7891 4.39844 17.4727 4.22266ZM11.25 9.25C9.66797 9.25 8.4375 8.01953 8.4375 6.4375C8.4375 4.89062 9.66797 3.625 11.25 3.625C12.7969 3.625 14.0625 4.89062 14.0625 6.4375C14.0625 8.01953 12.7969 9.25 11.25 9.25ZM21.375 7H19.125V18.25H21.9375C22.2188 18.25 22.5 18.0039 22.5 17.6875V8.125C22.5 7.52734 21.9727 7 21.375 7Z" fill="#A2D18C"/>
</svg>
