<svg width="22" height="26" viewBox="0 0 22 26" fill="none" xmlns="http://www.w3.org/2000/svg">
<path d="M10.9375 12.625C14.3555 12.625 17.1875 9.8418 17.1875 6.375C17.1875 2.95703 14.3555 0.125 10.9375 0.125C7.4707 0.125 4.6875 2.95703 4.6875 6.375C4.6875 9.8418 7.4707 12.625 10.9375 12.625ZM15.2832 14.1875H14.4531C13.3789 14.7246 12.207 14.9688 10.9375 14.9688C9.66797 14.9688 8.44727 14.7246 7.37305 14.1875H6.54297C2.92969 14.1875 0 17.166 0 20.7793V22.7812C0 24.0996 1.02539 25.125 2.34375 25.125H19.5312C20.8008 25.125 21.875 24.0996 21.875 22.7812V20.7793C21.875 17.166 18.8965 14.1875 15.2832 14.1875Z" fill="#9E00FF"/>
</svg>
