<svg width="23" height="26" viewBox="0 0 23 26" fill="none" xmlns="http://www.w3.org/2000/svg">
<path d="M11.5 13.1875C14.918 13.1875 17.75 10.4043 17.75 6.9375C17.75 3.51953 14.918 0.6875 11.5 0.6875C8.0332 0.6875 5.25 3.51953 5.25 6.9375C5.25 10.4043 8.0332 13.1875 11.5 13.1875ZM15.8457 14.75H15.0156C13.9414 15.2871 12.7695 15.5312 11.5 15.5312C10.2305 15.5312 9.00977 15.2871 7.93555 14.75H7.10547C3.49219 14.75 0.5625 17.7285 0.5625 21.3418V23.3438C0.5625 24.6621 1.58789 25.6875 2.90625 25.6875H20.0938C21.3633 25.6875 22.4375 24.6621 22.4375 23.3438V21.3418C22.4375 17.7285 19.459 14.75 15.8457 14.75Z" fill="#9E00FF"/>
</svg>
