<svg width="12" height="14" viewBox="0 0 12 14" fill="none" xmlns="http://www.w3.org/2000/svg">
<path d="M6.26192 7.125C8.03927 7.125 9.51192 5.67773 9.51192 3.875C9.51192 2.09766 8.03927 0.625 6.26192 0.625C4.45919 0.625 3.01192 2.09766 3.01192 3.875C3.01192 5.67773 4.45919 7.125 6.26192 7.125ZM8.52169 7.9375H8.09005C7.53145 8.2168 6.92208 8.34375 6.26192 8.34375C5.60177 8.34375 4.967 8.2168 4.40841 7.9375H3.97677C2.09786 7.9375 0.574422 9.48633 0.574422 11.3652V12.4062C0.574422 13.0918 1.10763 13.625 1.79317 13.625H10.7307C11.3908 13.625 11.9494 13.0918 11.9494 12.4062V11.3652C11.9494 9.48633 10.4006 7.9375 8.52169 7.9375Z" fill="#FEFAFA"/>
</svg>
