<svg width="32" height="36" viewBox="0 0 32 36" fill="none" xmlns="http://www.w3.org/2000/svg">
<path d="M16 18.25C20.7852 18.25 24.75 14.3535 24.75 9.5C24.75 4.71484 20.7852 0.75 16 0.75C11.1465 0.75 7.25 4.71484 7.25 9.5C7.25 14.3535 11.1465 18.25 16 18.25ZM22.084 20.4375H20.9219C19.418 21.1895 17.7773 21.5312 16 21.5312C14.2227 21.5312 12.5137 21.1895 11.0098 20.4375H9.84766C4.78906 20.4375 0.6875 24.6074 0.6875 29.666V32.4688C0.6875 34.3145 2.12305 35.75 3.96875 35.75H28.0312C29.8086 35.75 31.3125 34.3145 31.3125 32.4688V29.666C31.3125 24.6074 27.1426 20.4375 22.084 20.4375Z" fill="#FEFAFA"/>
</svg>
