<svg width="41" height="41" viewBox="0 0 41 41" fill="none" xmlns="http://www.w3.org/2000/svg">
<path d="M39.6069 34.6094L31.7944 26.7969C31.4038 26.4844 30.9351 26.25 30.4663 26.25H29.2163C31.3257 23.5156 32.6538 20.0781 32.6538 16.25C32.6538 7.34375 25.3101 0 16.4038 0C7.41943 0 0.153809 7.34375 0.153809 16.25C0.153809 25.2344 7.41943 32.5 16.4038 32.5C20.1538 32.5 23.5913 31.25 26.4038 29.0625V30.3906C26.4038 30.8594 26.5601 31.3281 26.9507 31.7188L34.6851 39.4531C35.4663 40.2344 36.6382 40.2344 37.3413 39.4531L39.5288 37.2656C40.3101 36.5625 40.3101 35.3906 39.6069 34.6094ZM16.4038 26.25C10.8569 26.25 6.40381 21.7969 6.40381 16.25C6.40381 10.7812 10.8569 6.25 16.4038 6.25C21.8726 6.25 26.4038 10.7812 26.4038 16.25C26.4038 21.7969 21.8726 26.25 16.4038 26.25Z" fill="#54AA76"/>
</svg>
