<svg width="34" height="32" viewBox="0 0 34 32" fill="none" xmlns="http://www.w3.org/2000/svg">
<path d="M31.2648 10.8281L22.7101 9.59766L18.8429 1.80469C18.1984 0.457031 16.2062 0.398438 15.5031 1.80469L11.6945 9.59766L3.08118 10.8281C1.55774 11.0625 0.971802 12.9375 2.08508 14.0508L8.23743 20.0859L6.77258 28.582C6.53821 30.1055 8.17883 31.2773 9.52649 30.5742L17.2023 26.5312L24.8195 30.5742C26.1671 31.2773 27.8077 30.1055 27.5734 28.582L26.1085 20.0859L32.2609 14.0508C33.3741 12.9375 32.7882 11.0625 31.2648 10.8281ZM23.0616 19.0898L24.4679 27.1758L17.2023 23.3672L9.87805 27.1758L11.2843 19.0898L5.36633 13.3477L13.5109 12.1758L17.2023 4.79297L20.8351 12.1758L28.9796 13.3477L23.0616 19.0898Z" fill="#9E00FF"/>
</svg>
