<svg width="33" height="32" viewBox="0 0 33 32" fill="none" xmlns="http://www.w3.org/2000/svg">
<path d="M14.7031 1.80469L10.8945 9.59766L2.28125 10.8281C0.757812 11.0625 0.171875 12.9375 1.28516 14.0508L7.4375 20.0859L5.97266 28.582C5.73828 30.1055 7.37891 31.2773 8.72656 30.5742L16.4023 26.5312L24.0195 30.5742C25.3672 31.2773 27.0078 30.1055 26.7734 28.582L25.3086 20.0859L31.4609 14.0508C32.5742 12.9375 31.9883 11.0625 30.4648 10.8281L21.9102 9.59766L18.043 1.80469C17.3984 0.457031 15.4062 0.398438 14.7031 1.80469Z" fill="white"/>
<path d="M14.7031 1.80469L13.8087 1.35746L13.8047 1.3656L14.7031 1.80469ZM10.8945 9.59766L11.036 10.5876L11.5604 10.5127L11.793 10.0367L10.8945 9.59766ZM2.28125 10.8281L2.13982 9.83812L2.12919 9.83975L2.28125 10.8281ZM1.28516 14.0508L0.578017 14.7579L0.584881 14.7647L1.28516 14.0508ZM7.4375 20.0859L8.42296 20.2558L8.51204 19.7392L8.13778 19.3721L7.4375 20.0859ZM5.97266 28.582L4.9872 28.4121L4.98566 28.421L4.98428 28.43L5.97266 28.582ZM8.72656 30.5742L9.18913 31.4608L9.19259 31.459L8.72656 30.5742ZM16.4023 26.5312L16.8712 25.648L16.4041 25.4001L15.9363 25.6465L16.4023 26.5312ZM24.0195 30.5742L23.5507 31.4575L23.557 31.4608L24.0195 30.5742ZM26.7734 28.582L27.7618 28.43L27.7604 28.421L27.7589 28.4121L26.7734 28.582ZM25.3086 20.0859L24.6083 19.3721L24.2341 19.7392L24.3231 20.2558L25.3086 20.0859ZM31.4609 14.0508L32.1612 14.7647L32.168 14.7579L31.4609 14.0508ZM30.4648 10.8281L30.6169 9.83971L30.6072 9.83831L30.4648 10.8281ZM21.9102 9.59766L21.0144 10.0422L21.2479 10.5127L21.7678 10.5875L21.9102 9.59766ZM18.043 1.80469L17.1408 2.23614L17.144 2.2427L17.1472 2.24921L18.043 1.80469ZM13.8047 1.3656L9.99609 9.15857L11.793 10.0367L15.6016 2.24378L13.8047 1.3656ZM10.7531 8.60771L2.13983 9.83818L2.42267 11.8181L11.036 10.5876L10.7531 8.60771ZM2.12919 9.83975C-0.248698 10.2056 -1.08206 13.0978 0.578049 14.7579L1.99226 13.3437C1.42581 12.7772 1.76432 11.9194 2.43331 11.8165L2.12919 9.83975ZM0.584881 14.7647L6.73722 20.7998L8.13778 19.3721L1.98543 13.3369L0.584881 14.7647ZM6.45204 19.916L4.9872 28.4121L6.95812 28.7519L8.42296 20.2558L6.45204 19.916ZM4.98428 28.43C4.62654 30.7553 7.10777 32.5467 9.18913 31.4608L8.264 29.6876C7.65004 30.008 6.85003 29.4556 6.96103 28.7341L4.98428 28.43ZM9.19259 31.459L16.8684 27.416L15.9363 25.6465L8.26054 29.6894L9.19259 31.459ZM15.9335 27.4145L23.5507 31.4575L24.4884 29.6909L16.8712 25.648L15.9335 27.4145ZM23.557 31.4608C25.6383 32.5467 28.1196 30.7553 27.7618 28.43L25.7851 28.7341C25.8961 29.4556 25.0961 30.008 24.4821 29.6876L23.557 31.4608ZM27.7589 28.4121L26.2941 19.916L24.3231 20.2558L25.788 28.7519L27.7589 28.4121ZM26.0089 20.7998L32.1612 14.7647L30.7607 13.3369L24.6083 19.3721L26.0089 20.7998ZM32.168 14.7579C33.8282 13.0978 32.9948 10.2056 30.6169 9.83975L30.3128 11.8165C30.9818 11.9194 31.3203 12.7772 30.7538 13.3437L32.168 14.7579ZM30.6072 9.83831L22.0525 8.60784L21.7678 10.5875L30.3225 11.8179L30.6072 9.83831ZM22.8059 9.15314L18.9387 1.36017L17.1472 2.24921L21.0144 10.0422L22.8059 9.15314ZM18.9451 1.37323C17.9444 -0.719059 14.887 -0.799088 13.8087 1.35747L15.5976 2.2519C15.9255 1.59596 16.8524 1.63312 17.1408 2.23614L18.9451 1.37323Z" fill="#54AA76"/>
</svg>
