<svg width="25" height="25" viewBox="0 0 25 25" fill="none" xmlns="http://www.w3.org/2000/svg">
<circle cx="12.5" cy="12.5" r="12.5" fill="#9E00FF"/>
<path d="M12.2619 12.125C14.0393 12.125 15.5119 10.6777 15.5119 8.875C15.5119 7.09766 14.0393 5.625 12.2619 5.625C10.4592 5.625 9.01192 7.09766 9.01192 8.875C9.01192 10.6777 10.4592 12.125 12.2619 12.125ZM14.5217 12.9375H14.09C13.5315 13.2168 12.9221 13.3438 12.2619 13.3438C11.6018 13.3438 10.967 13.2168 10.4084 12.9375H9.97677C8.09786 12.9375 6.57442 14.4863 6.57442 16.3652V17.4062C6.57442 18.0918 7.10763 18.625 7.79317 18.625H16.7307C17.3908 18.625 17.9494 18.0918 17.9494 17.4062V16.3652C17.9494 14.4863 16.4006 12.9375 14.5217 12.9375Z" fill="#FEFAFA"/>
</svg>
