<svg width="23" height="19" viewBox="0 0 23 19" fill="none" xmlns="http://www.w3.org/2000/svg">
<path d="M16.5 7C16.5 3.5625 12.8281 0.75 8.375 0.75C3.88281 0.75 0.25 3.5625 0.25 7C0.25 8.36719 0.796875 9.57812 1.73438 10.5938C1.1875 11.8047 0.328125 12.7422 0.328125 12.7422C0.25 12.8203 0.210938 12.9766 0.25 13.0938C0.328125 13.2109 0.40625 13.25 0.5625 13.25C1.96875 13.25 3.14062 12.7812 4 12.2734C5.25 12.8984 6.77344 13.25 8.375 13.25C12.8281 13.25 16.5 10.4766 16.5 7ZM21.2656 15.5938C22.1641 14.5781 22.75 13.3672 22.75 12C22.75 9.42188 20.6406 7.15625 17.6719 6.21875C17.7109 6.49219 17.75 6.76562 17.75 7C17.75 11.1406 13.5312 14.5 8.375 14.5C7.94531 14.5 7.51562 14.5 7.125 14.4609C8.33594 16.6875 11.2266 18.25 14.625 18.25C16.2266 18.25 17.7109 17.8984 18.9609 17.2734C19.8203 17.7812 20.9922 18.25 22.4375 18.25C22.5547 18.25 22.6719 18.2109 22.7109 18.0938C22.75 17.9766 22.75 17.8203 22.6328 17.7422C22.6328 17.7422 21.7734 16.8047 21.2656 15.5938Z" fill="#FEFAFA"/>
</svg>
