<svg width="23" height="19" viewBox="0 0 23 19" fill="none" xmlns="http://www.w3.org/2000/svg">
<path d="M11.1875 5.32031L4 11.2578V17.625C4 17.9766 4.27344 18.25 4.625 18.25H9C9.3125 18.25 9.58594 17.9766 9.58594 17.625V13.875C9.58594 13.5625 9.89844 13.25 10.2109 13.25H12.7109C13.0625 13.25 13.3359 13.5625 13.3359 13.875V17.625C13.3359 17.9766 13.6484 18.25 13.9609 18.25H18.375C18.6875 18.25 19 17.9766 19 17.625V11.2188L11.7734 5.32031C11.6953 5.24219 11.5781 5.20312 11.5 5.20312C11.3828 5.20312 11.2656 5.24219 11.1875 5.32031ZM22.5547 9.34375L19.3125 6.64844V1.25781C19.3125 0.984375 19.0781 0.789062 18.8438 0.789062H16.6562C16.3828 0.789062 16.1875 0.984375 16.1875 1.25781V4.07031L12.6719 1.17969C12.3594 0.945312 11.9297 0.789062 11.5 0.789062C11.0312 0.789062 10.6016 0.945312 10.2891 1.17969L0.40625 9.34375C0.289062 9.42188 0.210938 9.57812 0.210938 9.69531C0.210938 9.8125 0.289062 9.92969 0.328125 10.0078L1.34375 11.2188C1.42188 11.3359 1.53906 11.375 1.69531 11.375C1.8125 11.375 1.92969 11.3359 2.00781 11.2578L11.1875 3.71875C11.2656 3.64062 11.3828 3.60156 11.5 3.60156C11.5781 3.60156 11.6953 3.64062 11.7734 3.71875L20.9531 11.2578C21.0312 11.3359 21.1484 11.375 21.2656 11.375C21.4219 11.375 21.5391 11.3359 21.6172 11.2188L22.6328 10.0078C22.7109 9.92969 22.75 9.8125 22.75 9.69531C22.75 9.57812 22.6719 9.42188 22.5547 9.34375Z" fill="#FEFAFA"/>
</svg>
