<svg width="18" height="21" viewBox="0 0 18 21" fill="none" xmlns="http://www.w3.org/2000/svg">
<path d="M9 10.5C11.7344 10.5 14 8.27344 14 5.5C14 2.76562 11.7344 0.5 9 0.5C6.22656 0.5 4 2.76562 4 5.5C4 8.27344 6.22656 10.5 9 10.5ZM12.4766 11.75H11.8125C10.9531 12.1797 10.0156 12.375 9 12.375C7.98438 12.375 7.00781 12.1797 6.14844 11.75H5.48438C2.59375 11.75 0.25 14.1328 0.25 17.0234V18.625C0.25 19.6797 1.07031 20.5 2.125 20.5H15.875C16.8906 20.5 17.75 19.6797 17.75 18.625V17.0234C17.75 14.1328 15.3672 11.75 12.4766 11.75Z" fill="#FEFAFA"/>
</svg>
