<svg width="18" height="14" viewBox="0 0 18 14" fill="none" xmlns="http://www.w3.org/2000/svg">
<path d="M14.918 1.7793C13.2188 0.34375 10.6113 0.548828 9 2.21875C7.35938 0.548828 4.75195 0.34375 3.05273 1.7793C0.855469 3.625 1.17773 6.64258 2.75977 8.25391L7.88672 13.498C8.17969 13.791 8.56055 13.9668 9 13.9668C9.41016 13.9668 9.79102 13.791 10.084 13.498L15.2402 8.25391C16.793 6.64258 17.1152 3.625 14.918 1.7793ZM14.2148 7.25781L9.08789 12.502C9.0293 12.5605 8.9707 12.5605 8.88281 12.502L3.75586 7.25781C2.67188 6.17383 2.4668 4.12305 3.96094 2.86328C5.10352 1.89648 6.86133 2.04297 7.97461 3.15625L9 4.21094L10.0254 3.15625C11.1094 2.04297 12.8672 1.89648 14.0098 2.83398C15.5039 4.12305 15.2988 6.17383 14.2148 7.25781Z" fill="#FA5E5E"/>
</svg>
