<svg width="17" height="17" viewBox="0 0 17 17" fill="none" xmlns="http://www.w3.org/2000/svg">
<path d="M8.44531 7.4668C7.88867 7.4668 7.44922 7.93555 7.44922 8.46289C7.44922 9.01953 7.88867 9.48828 8.44531 9.48828C9.00195 9.48828 9.44141 9.01953 9.44141 8.46289C9.44141 7.93555 8.97266 7.4668 8.44531 7.4668ZM5.19336 7.4668C4.63672 7.4668 4.19727 7.93555 4.19727 8.46289C4.19727 9.01953 4.63672 9.48828 5.19336 9.48828C5.75 9.48828 6.18945 9.01953 6.18945 8.46289C6.18945 7.93555 5.75 7.4668 5.19336 7.4668ZM11.668 7.4668C11.1113 7.4668 10.6719 7.93555 10.6719 8.46289C10.6719 9.01953 11.1113 9.48828 11.668 9.48828C12.2246 9.48828 12.6641 9.01953 12.6641 8.46289C12.6641 7.93555 12.2246 7.4668 11.668 7.4668ZM16.1797 5.85547C15.7109 5.15234 15.0957 4.50781 14.2754 3.98047C12.7227 2.98438 10.7012 2.39844 8.5332 2.39844C7.80078 2.39844 7.12695 2.48633 6.42383 2.60352C6.01367 2.16406 5.51562 1.8125 4.98828 1.51953C3.02539 0.552734 1.29688 0.904297 0.447266 1.22656C0.271484 1.28516 0.154297 1.43164 0.154297 1.60742C0.154297 1.72461 0.212891 1.8418 0.271484 1.90039C0.886719 2.54492 1.91211 3.80469 1.64844 4.94727C0.681641 5.94336 0.154297 7.14453 0.154297 8.375C0.154297 9.63477 0.681641 10.8359 1.64844 11.832C1.91211 12.9746 0.886719 14.2344 0.271484 14.8789C0.212891 14.9375 0.154297 15.0547 0.154297 15.1719C0.154297 15.3477 0.271484 15.4941 0.447266 15.5527C1.29688 15.875 3.02539 16.2266 4.98828 15.2598C5.51562 14.9668 6.01367 14.6152 6.42383 14.1758C7.12695 14.293 7.83008 14.3809 8.5332 14.3809C8.5625 14.3809 8.5332 14.3809 8.5625 14.3809C10.7012 14.3809 12.7227 13.7949 14.2754 12.7988C15.0957 12.2715 15.7109 11.627 16.1797 10.9238C16.6777 10.1328 16.9414 9.2832 16.9414 8.4043C16.9414 7.49609 16.6777 6.64648 16.1797 5.85547ZM8.44531 12.8867C8.44531 12.8867 8.44531 12.8867 8.41602 12.8867C7.53711 12.8867 6.6582 12.7695 5.83789 12.5645L5.25195 13.1211C4.92969 13.4434 4.54883 13.707 4.16797 13.9414C3.69922 14.1758 3.17188 14.3223 2.61523 14.3809C2.64453 14.3223 2.67383 14.2637 2.70312 14.2051C3.28906 13.1211 3.46484 12.1543 3.17188 11.2754C2.20508 10.5137 1.64844 9.54688 1.64844 8.49219C1.64844 6.06055 4.69531 4.06836 8.44531 4.06836C12.2246 4.06836 15.2715 6.06055 15.2715 8.49219C15.2715 10.9238 12.2246 12.8867 8.44531 12.8867Z" fill="black"/>
</svg>
