<svg width="25" height="23" viewBox="0 0 25 23" fill="none" xmlns="http://www.w3.org/2000/svg">
<path d="M25 6.15625C25 4.88672 23.9258 3.8125 22.6562 3.8125H18.3594L17.7246 2.25C17.3828 1.32227 16.5039 0.6875 15.5273 0.6875H9.42383C8.44727 0.6875 7.56836 1.32227 7.22656 2.25L6.64062 3.8125H2.34375C1.02539 3.8125 0 4.88672 0 6.15625V20.2188C0 21.5371 1.02539 22.5625 2.34375 22.5625H22.6562C23.9258 22.5625 25 21.5371 25 20.2188V6.15625ZM18.3594 13.1875C18.3594 16.459 15.7227 19.0469 12.5 19.0469C9.22852 19.0469 6.64062 16.459 6.64062 13.1875C6.64062 9.96484 9.22852 7.32812 12.5 7.32812C15.7227 7.32812 18.3594 9.96484 18.3594 13.1875ZM16.7969 13.1875C16.7969 10.8438 14.8438 8.89062 12.5 8.89062C10.1074 8.89062 8.20312 10.8438 8.20312 13.1875C8.20312 15.5801 10.1074 17.4844 12.5 17.4844C14.8438 17.4844 16.7969 15.5801 16.7969 13.1875Z" fill="black" fill-opacity="0.5"/>
</svg>
