<svg width="17" height="14" viewBox="0 0 17 14" fill="none" xmlns="http://www.w3.org/2000/svg">
<path d="M16.5234 5.5C16.6992 5.5 16.875 5.35352 16.875 5.14844V3.97656C16.875 3.80078 16.6992 3.625 16.5234 3.625H15.1172L15.6445 1.28125C15.7031 1.04688 15.5273 0.841797 15.293 0.841797H13.9453C13.7988 0.841797 13.6523 0.958984 13.623 1.13477L13.1836 3.625H9.96094L9.4043 1.10547C9.3457 0.958984 9.22852 0.841797 9.05273 0.841797H7.76367C7.58789 0.841797 7.4707 0.958984 7.41211 1.10547L6.82617 3.625H3.66211L3.13477 1.13477C3.10547 0.958984 2.95898 0.841797 2.7832 0.841797H1.55273C1.31836 0.841797 1.17188 1.04688 1.20117 1.28125L1.75781 3.625H0.351562C0.146484 3.625 0 3.80078 0 3.97656V5.14844C0 5.35352 0.146484 5.5 0.351562 5.5H2.16797L2.37305 6.4375H0.351562C0.146484 6.4375 0 6.61328 0 6.78906V7.96094C0 8.16602 0.146484 8.3125 0.351562 8.3125H2.7832L3.98438 13.6738C4.04297 13.8496 4.16016 13.9375 4.33594 13.9375H6.00586C6.15234 13.9375 6.29883 13.8496 6.35742 13.6738L7.58789 8.3125H9.19922L10.4297 13.6738C10.4883 13.8496 10.6055 13.9375 10.7812 13.9375H12.4512C12.5977 13.9375 12.7441 13.8496 12.8027 13.6738L14.0332 8.3125H16.5234C16.6992 8.3125 16.875 8.16602 16.875 7.96094V6.78906C16.875 6.61328 16.6992 6.4375 16.5234 6.4375H14.4434L14.6777 5.5H16.5234ZM5.36133 9.89453C5.18555 10.6562 5.18555 11.3008 5.15625 11.3008H5.12695C5.12695 11.3008 5.06836 10.6562 4.92188 9.89453L4.59961 8.3125H5.74219L5.36133 9.89453ZM6.18164 6.4375H4.21875L4.04297 5.5H6.38672L6.18164 6.4375ZM8.02734 6.4375L8.08594 6.20312C8.14453 5.96875 8.17383 5.73438 8.23242 5.5H8.55469C8.61328 5.73438 8.64258 5.96875 8.70117 6.20312L8.75977 6.4375H8.02734ZM11.8652 9.89453C11.7188 10.6562 11.6602 11.3008 11.6602 11.3008H11.6309C11.6016 11.3008 11.6016 10.6562 11.3965 9.89453L11.0449 8.3125H12.1875L11.8652 9.89453ZM12.5977 6.4375H10.6055L10.4004 5.5H12.8027L12.5977 6.4375Z" fill="black"/>
</svg>
