<svg width="25" height="19" viewBox="0 0 25 19" fill="none" xmlns="http://www.w3.org/2000/svg">
<path d="M22.6562 0.25H2.34375C1.02539 0.25 0 1.32422 0 2.59375V16.6562C0 17.9746 1.02539 19 2.34375 19H22.6562C23.9258 19 25 17.9746 25 16.6562V2.59375C25 1.32422 23.9258 0.25 22.6562 0.25ZM22.3633 16.6562H2.63672C2.44141 16.6562 2.34375 16.5586 2.34375 16.3633V2.88672C2.34375 2.74023 2.44141 2.59375 2.63672 2.59375H22.3633C22.5098 2.59375 22.6562 2.74023 22.6562 2.88672V16.3633C22.6562 16.5586 22.5098 16.6562 22.3633 16.6562ZM6.25 4.54688C5.12695 4.54688 4.29688 5.42578 4.29688 6.5C4.29688 7.62305 5.12695 8.45312 6.25 8.45312C7.32422 8.45312 8.20312 7.62305 8.20312 6.5C8.20312 5.42578 7.32422 4.54688 6.25 4.54688ZM4.6875 14.3125H20.3125V10.4062L16.0156 6.1582C15.7715 5.91406 15.4297 5.91406 15.1855 6.1582L9.375 11.9688L7.42188 10.0645C7.17773 9.82031 6.83594 9.82031 6.5918 10.0645L4.6875 11.9688V14.3125Z" fill="black"/>
</svg>
