<svg width="49" height="49" viewBox="0 0 49 49" fill="none" xmlns="http://www.w3.org/2000/svg">
<path d="M20.9844 0.324219C16.6875 0.910156 12.5859 2.66797 9.07031 5.59766L16.5898 13.1172C19.3242 9.60156 20.7891 5.20703 20.9844 0.324219ZM24.5 20.9297L39.832 5.59766C35.7305 2.17969 30.75 0.324219 25.6719 0.03125C25.5742 6.28125 23.5234 12.043 19.9102 16.4375L24.5 20.9297ZM5.75 8.91797C2.82031 12.4336 1.0625 16.5352 0.476562 20.832C5.35938 20.6367 9.75391 19.1719 13.2695 16.4375L5.75 8.91797ZM32.3125 28.8398C36.707 25.2266 42.4688 23.1758 48.7188 23.0781C48.4258 18 46.5703 13.0195 43.1523 8.91797L27.8203 24.25L32.3125 28.8398ZM24.5 27.5703L9.07031 43C13.1719 46.418 18.1523 48.2734 23.2305 48.4688C23.3281 42.2188 25.3789 36.5547 28.9922 32.1602L24.5 27.5703ZM43.1523 39.6797C46.082 36.1641 47.8398 32.0625 48.4258 27.7656C43.543 27.9609 39.1484 29.4258 35.6328 32.1602L43.1523 39.6797ZM16.5898 19.7578C12.1953 23.3711 6.43359 25.4219 0.28125 25.5195C0.476562 30.5977 2.33203 35.5781 5.75 39.6797L21.1797 24.25L16.5898 19.7578ZM27.918 48.2734C32.2148 47.6875 36.3164 45.9297 39.832 43L32.3125 35.4805C29.5781 38.9961 28.1133 43.3906 27.918 48.2734Z" fill="#7A685D"/>
</svg>
