<svg width="57" height="45" viewBox="0 0 57 45" fill="none" xmlns="http://www.w3.org/2000/svg">
<path d="M53.3047 0.472656C47.9336 0.765625 37.2891 1.83984 30.7461 5.84375C30.2578 6.13672 29.9648 6.625 29.9648 7.11328V42.6602C29.9648 43.832 31.2344 44.5156 32.3086 44.0273C39.0469 40.6094 48.8125 39.6328 53.5977 39.4375C55.2578 39.3398 56.5273 37.9727 56.5273 36.4102V3.40234C56.625 1.74219 55.0625 0.375 53.3047 0.472656ZM26.1562 5.84375C19.6133 1.83984 8.96875 0.765625 3.59766 0.472656C1.83984 0.375 0.375 1.74219 0.375 3.40234V36.4102C0.375 37.9727 1.64453 39.3398 3.30469 39.4375C8.08984 39.6328 17.8555 40.6094 24.5938 44.0273C25.668 44.5156 26.9375 43.832 26.9375 42.6602V7.11328C26.9375 6.625 26.6445 6.13672 26.1562 5.84375Z" fill="#B390D7"/>
</svg>
