<svg width="46" height="51" viewBox="0 0 46 51" fill="none" xmlns="http://www.w3.org/2000/svg">
<path d="M12.0625 12.75C12.0625 9.91797 13.625 7.37891 15.9688 6.10938V25.25H20.6562V4.9375H25.3438V25.25H30.0312V6.10938C32.2773 7.37891 33.9375 9.91797 33.9375 12.75V25.25H38.625V12.75C38.625 5.91406 32.9609 0.25 26.125 0.25H19.875C12.9414 0.25 7.375 5.91406 7.375 12.75V25.25H12.0625V12.75ZM44.6797 33.6484L43.6055 30.5234C43.2148 29.2539 42.043 28.375 40.6758 28.375H5.22656C3.85938 28.375 2.6875 29.2539 2.29688 30.5234L1.22266 33.6484C0.539062 35.6992 2.10156 37.75 4.25 37.75V48.6875C4.25 49.5664 4.93359 50.25 5.8125 50.25H8.9375C9.71875 50.25 10.5 49.5664 10.5 48.6875V37.75H35.5V48.6875C35.5 49.5664 36.1836 50.25 37.0625 50.25H40.1875C40.9688 50.25 41.75 49.5664 41.75 48.6875V37.75C43.8008 37.75 45.3633 35.6992 44.6797 33.6484Z" fill="#A5B4C6"/>
</svg>
