<svg width="64" height="51" viewBox="0 0 64 51" fill="none" xmlns="http://www.w3.org/2000/svg">
<path d="M62.8711 9.72266L43.8281 0.25C41.875 2.98438 37.4805 4.9375 32.5 4.9375C27.4219 4.9375 23.0273 2.98438 21.0742 0.25L2.03125 9.72266C1.25 10.1133 0.957031 11.0898 1.34766 11.7734L6.91406 23.0039C7.30469 23.7852 8.28125 24.0781 9.0625 23.6875L14.5312 20.9531C15.6055 20.4648 16.7773 21.2461 16.7773 22.418V47.125C16.7773 48.8828 18.2422 50.25 19.9023 50.25H44.9023C46.6602 50.25 48.0273 48.8828 48.0273 47.125V22.418C48.0273 21.2461 49.2969 20.4648 50.2734 20.9531L55.8398 23.6875C56.6211 24.0781 57.5977 23.7852 57.9883 23.0039L63.5547 11.7734C63.9453 11.0898 63.6523 10.1133 62.8711 9.72266Z" fill="#F3E560"/>
</svg>
