<svg width="63" height="51" viewBox="0 0 63 51" fill="none" xmlns="http://www.w3.org/2000/svg">
<path d="M58.0625 0.25H4.9375C2.30078 0.25 0.25 2.39844 0.25 4.9375V36.1875C0.25 38.8242 2.30078 40.875 4.9375 40.875H28.375V44H11.1875C10.3086 44 9.625 44.7812 9.625 45.5625V48.6875C9.625 49.5664 10.3086 50.25 11.1875 50.25H51.8125C52.5938 50.25 53.375 49.5664 53.375 48.6875V45.5625C53.375 44.7812 52.5938 44 51.8125 44H34.625V40.875H58.0625C60.6016 40.875 62.75 38.8242 62.75 36.1875V4.9375C62.75 2.39844 60.6016 0.25 58.0625 0.25ZM56.5 34.625H6.5V6.5H56.5V34.625Z" fill="#9BB2EE"/>
</svg>
