<svg width="63" height="51" viewBox="0 0 63 51" fill="none" xmlns="http://www.w3.org/2000/svg">
<path d="M10.6016 16.9492L15.4844 14.8984C15.6797 14.8008 15.7773 14.6055 15.7773 14.3125C15.7773 14.1172 15.6797 13.9219 15.4844 13.7266L10.6016 11.7734L8.64844 6.89062C8.45312 6.69531 8.25781 6.5 8.0625 6.5C7.76953 6.5 7.57422 6.69531 7.47656 6.89062L5.42578 11.7734L0.542969 13.7266C0.347656 13.9219 0.25 14.1172 0.25 14.3125C0.25 14.6055 0.347656 14.8008 0.542969 14.8984L5.42578 16.9492L7.47656 21.832C7.57422 22.0273 7.76953 22.125 7.96484 22.125C8.25781 22.125 8.45312 22.0273 8.55078 21.832L10.6016 16.9492ZM46.2461 45.9531L46.1484 45.8555H46.0508C44.7812 45.2695 44 44 44 42.4375C44 40.9727 44.7812 39.7031 46.0508 39.1172L46.1484 39.0195H46.2461L49.8594 37.457L51.4219 33.8438V33.7461L51.5195 33.6484C51.9102 32.8672 52.4961 32.2812 53.2773 31.9883C53.2773 31.793 53.2773 31.6953 53.375 31.5977V14.3125C53.375 12.6523 51.9102 11.1875 50.25 11.1875C48.4922 11.1875 47.125 12.6523 47.125 14.3125V21.3438C47.125 21.832 46.7344 22.125 46.3438 22.125H44.7812C44.293 22.125 44 21.832 44 21.3438V6.5C44 4.83984 42.5352 3.375 40.875 3.375C39.1172 3.375 37.75 4.83984 37.75 6.5V21.3438C37.75 21.832 37.3594 22.125 36.9688 22.125H35.4062C34.918 22.125 34.625 21.832 34.625 21.3438V3.375C34.625 1.71484 33.1602 0.25 31.5 0.25C29.7422 0.25 28.375 1.71484 28.375 3.375V21.3438C28.375 21.832 27.9844 22.125 27.5938 22.125H26.0312C25.543 22.125 25.25 21.832 25.25 21.3438V6.5C25.25 4.83984 23.7852 3.375 22.125 3.375C20.3672 3.375 19 4.83984 19 6.5V30.0352L16.6562 26.9102C15.9727 25.9336 14.8008 25.3477 13.5312 25.3477C11.2852 25.3477 9.625 27.0078 9.625 29.2539C9.625 30.0352 9.82031 30.8164 10.3086 31.5L22.6133 48.3945C23.4922 49.5664 24.8594 50.25 26.4219 50.25H45.6602C47.5156 50.25 49.1758 49.1758 49.8594 47.5156L46.2461 45.9531ZM34.332 33.4531L31.5 34.625L30.2305 37.5547C30.1328 37.75 30.0352 37.75 29.9375 37.75C29.7422 37.75 29.6445 37.75 29.5469 37.5547L28.375 34.625L25.4453 33.4531C25.25 33.3555 25.1523 33.2578 25.1523 33.0625C25.1523 32.9648 25.25 32.8672 25.4453 32.7695L28.375 31.5L29.5469 28.668C29.6445 28.4727 29.7422 28.375 29.8398 28.375C30.0352 28.375 30.1328 28.4727 30.2305 28.668L31.5 31.5L34.332 32.7695C34.5273 32.8672 34.625 32.9648 34.625 33.0625C34.625 33.2578 34.5273 33.3555 34.332 33.4531ZM62.75 42.4375C62.6523 42.2422 62.5547 42.0469 62.3594 41.8516L57.4766 39.8984L55.5234 35.0156C55.3281 34.8203 55.1328 34.625 54.9375 34.625C54.6445 34.625 54.4492 34.8203 54.3516 35.0156L52.3008 39.8984L47.418 41.8516C47.2227 42.0469 47.125 42.2422 47.125 42.4375C47.125 42.7305 47.2227 42.9258 47.418 43.0234L52.3008 45.0742L54.3516 49.957C54.4492 50.1523 54.6445 50.25 54.8398 50.25C55.1328 50.25 55.3281 50.1523 55.4258 49.957L57.4766 45.0742L62.3594 43.0234C62.5547 42.9258 62.6523 42.7305 62.6523 42.4375H62.75Z" fill="#EEB989"/>
</svg>
