<svg width="44" height="51" viewBox="0 0 44 51" fill="none" xmlns="http://www.w3.org/2000/svg">
<path d="M43.875 35.4062V2.59375C43.875 1.32422 42.8008 0.25 41.5312 0.25H9.5C4.32422 0.25 0.125 4.44922 0.125 9.625V40.875C0.125 46.0508 4.32422 50.25 9.5 50.25H41.5312C42.8008 50.25 43.875 49.2734 43.875 47.9062V46.3438C43.875 45.6602 43.4844 44.9766 42.9961 44.5859C42.5078 43.0234 42.5078 38.7266 42.9961 37.2617C43.4844 36.8711 43.875 36.1875 43.875 35.4062ZM12.625 13.3359C12.625 13.043 12.8203 12.75 13.2109 12.75H33.9141C34.207 12.75 34.5 13.043 34.5 13.3359V15.2891C34.5 15.6797 34.207 15.875 33.9141 15.875H13.2109C12.8203 15.875 12.625 15.6797 12.625 15.2891V13.3359ZM12.625 19.5859C12.625 19.293 12.8203 19 13.2109 19H33.9141C34.207 19 34.5 19.293 34.5 19.5859V21.5391C34.5 21.9297 34.207 22.125 33.9141 22.125H13.2109C12.8203 22.125 12.625 21.9297 12.625 21.5391V19.5859ZM37.332 44H9.5C7.74219 44 6.375 42.6328 6.375 40.875C6.375 39.2148 7.74219 37.75 9.5 37.75H37.332C37.1367 39.5078 37.1367 42.3398 37.332 44Z" fill="#EF8787"/>
</svg>
