<svg width="52" height="52" viewBox="0 0 52 52" fill="none" xmlns="http://www.w3.org/2000/svg">
<path d="M49.5352 15.2148C51.3906 13.3594 51.3906 10.332 49.5352 8.57422L43.6758 2.71484C41.918 0.859375 38.8906 0.859375 37.0352 2.71484L32.543 7.20703C32.1523 7.59766 32.1523 8.37891 32.543 8.86719L43.3828 19.707C43.8711 20.0977 44.6523 20.0977 45.043 19.707L49.5352 15.2148ZM28.7344 11.0156L3.05078 36.6992L1 48.5156C0.707031 50.1758 2.07422 51.543 3.73438 51.25L15.5508 49.1992L41.2344 23.5156C41.7227 23.125 41.7227 22.3438 41.2344 21.8555L30.3945 11.0156C29.9062 10.625 29.125 10.625 28.7344 11.0156ZM13.1094 34.4531C12.5234 33.9648 12.5234 33.0859 13.1094 32.5977L28.1484 17.5586C28.6367 16.9727 29.5156 16.9727 30.0039 17.5586C30.5898 18.0469 30.5898 18.9258 30.0039 19.4141L14.9648 34.4531C14.4766 35.0391 13.5977 35.0391 13.1094 34.4531ZM9.59375 42.6562H14.2812V46.2695L7.93359 47.3438L4.90625 44.3164L5.98047 37.9688H9.59375V42.6562Z" fill="#492222"/>
</svg>
