<svg width="40" height="40" viewBox="0 0 30 30" fill="none" xmlns="http://www.w3.org/2000/svg">
<circle cx="15" cy="15" r="15" fill="#54AA76"/>
<path d="M14.7143 15.375C16.7651 15.375 18.4643 13.7051 18.4643 11.625C18.4643 9.57422 16.7651 7.875 14.7143 7.875C12.6342 7.875 10.9643 9.57422 10.9643 11.625C10.9643 13.7051 12.6342 15.375 14.7143 15.375ZM17.3217 16.3125H16.8237C16.1791 16.6348 15.476 16.7812 14.7143 16.7812C13.9526 16.7812 13.2202 16.6348 12.5756 16.3125H12.0776C9.90961 16.3125 8.15179 18.0996 8.15179 20.2676V21.4688C8.15179 22.2598 8.76703 22.875 9.55804 22.875H19.8705C20.6323 22.875 21.2768 22.2598 21.2768 21.4688V20.2676C21.2768 18.0996 19.4897 16.3125 17.3217 16.3125Z" fill="#FEFAFA"/>
</svg>
