<svg width="16" height="7" viewBox="0 0 16 7" fill="none" xmlns="http://www.w3.org/2000/svg">
<path d="M15.3208 4.17015C15.239 4.23906 15.1392 4.27264 15.0401 4.27264C14.9159 4.27264 14.7925 4.21987 14.7063 4.11738L13.5632 2.75964C13.0648 3.21277 12.4357 3.66371 11.656 4.03386L12.3081 5.6137C12.4 5.83633 12.294 6.09135 12.0714 6.18326C12.0169 6.20572 11.9605 6.21641 11.9051 6.21641C11.7338 6.21641 11.5713 6.11479 11.5018 5.94656L10.8494 4.36597C10.052 4.64519 9.12431 4.83446 8.05157 4.87546V6.56388C8.05157 6.80473 7.8563 7 7.61546 7C7.37461 7 7.17934 6.80473 7.17934 6.56388V4.87546C6.20146 4.83806 5.34558 4.67648 4.59764 4.43673L3.97443 5.94656C3.90498 6.11479 3.74252 6.21641 3.57113 6.21641C3.51563 6.21641 3.45938 6.20572 3.40486 6.18326C3.18222 6.09135 3.07625 5.83633 3.16816 5.6137L3.78123 4.12839C2.97878 3.77492 2.3282 3.33401 1.80835 2.88393L0.769954 4.11738C0.683712 4.21976 0.560291 4.27264 0.436107 4.27264C0.33689 4.27264 0.237237 4.23895 0.155466 4.17015C-0.0287936 4.015 -0.0524529 3.73992 0.102696 3.55566L1.18034 2.27566C0.399582 1.42676 0.0666068 0.681 0.0355335 0.608714C-0.0595399 0.387494 0.0427295 0.130948 0.264059 0.0358744C0.485279 -0.0594171 0.741824 0.0430704 0.836898 0.2644C0.866445 0.331998 1.20607 1.08114 2.02008 1.8921C2.03131 1.89984 2.0432 1.90616 2.05388 1.9151C2.08256 1.9393 2.106 1.96711 2.12682 1.99622C2.68745 2.53068 3.45589 3.07953 4.47858 3.46975C4.49232 3.47389 4.50616 3.47651 4.51979 3.48207C4.52524 3.48436 4.52982 3.48785 4.53517 3.49035C5.38189 3.80588 6.39869 4.01304 7.61535 4.01304C12.7238 4.01304 14.3777 0.301688 14.3937 0.264182C14.4888 0.0429615 14.7454 -0.059744 14.9665 0.0356565C15.1879 0.13073 15.2901 0.387275 15.1951 0.608495C15.1657 0.676748 14.8668 1.34553 14.1767 2.13425L15.3732 3.55544C15.5287 3.73992 15.505 4.015 15.3208 4.17015Z" fill="black"/>
</svg>
