<svg width="19" height="14" viewBox="0 0 19 14" fill="none" xmlns="http://www.w3.org/2000/svg">
<path d="M18.252 3.88867C18.5449 4.00586 18.75 4.26953 18.75 4.5625C18.75 4.88477 18.5449 5.14844 18.252 5.26562L9.99023 8.22461C9.58008 8.37109 9.14062 8.37109 8.73047 8.22461L3.16406 6.23242C2.8125 6.61328 2.54883 7.08203 2.43164 7.60938C2.63672 7.75586 2.8125 8.01953 2.8125 8.3125C2.8125 8.60547 2.66602 8.86914 2.46094 9.04492L3.16406 13.4102C3.22266 13.7031 2.98828 13.9375 2.72461 13.9375H0.996094C0.732422 13.9375 0.498047 13.7031 0.556641 13.4102L1.25977 9.04492C1.05469 8.86914 0.9375 8.60547 0.9375 8.3125C0.9375 7.93164 1.17188 7.60938 1.49414 7.46289C1.61133 6.87695 1.875 6.34961 2.22656 5.88086L0.46875 5.26562C0.175781 5.14844 0 4.88477 0 4.5625C0 4.26953 0.175781 4.00586 0.46875 3.88867L8.70117 0.929688C9.11133 0.783203 9.55078 0.783203 9.96094 0.929688L18.252 3.88867ZM10.2832 9.10352L14.5605 7.58008L15 11.7695C15 12.9707 12.4512 13.9375 9.375 13.9375C6.24023 13.9375 3.75 12.9707 3.75 11.7695L4.16016 7.58008L8.4375 9.10352C8.73047 9.2207 9.05273 9.25 9.375 9.25C9.66797 9.25 9.99023 9.2207 10.2832 9.10352Z" fill="black"/>
</svg>
