<svg width="19" height="21" viewBox="0 0 19 21" fill="none" xmlns="http://www.w3.org/2000/svg">
<path d="M18.1484 14.6797C17.4062 13.8594 15.9609 12.6484 15.9609 8.625C15.9609 5.61719 13.8516 3.19531 10.9609 2.57031V1.75C10.9609 1.08594 10.4141 0.5 9.75 0.5C9.04688 0.5 8.5 1.08594 8.5 1.75V2.57031C5.60938 3.19531 3.5 5.61719 3.5 8.625C3.5 12.6484 2.05469 13.8594 1.3125 14.6797C1.07812 14.9141 0.960938 15.2266 1 15.5C1 16.1641 1.46875 16.75 2.25 16.75H17.2109C17.9922 16.75 18.4609 16.1641 18.5 15.5C18.5 15.2266 18.3828 14.9141 18.1484 14.6797ZM3.61719 14.875C4.4375 13.8203 5.33594 11.9844 5.375 8.66406C5.375 8.66406 5.375 8.66406 5.375 8.625C5.375 6.24219 7.32812 4.25 9.75 4.25C12.1328 4.25 14.125 6.24219 14.125 8.625C14.125 8.66406 14.0859 8.66406 14.0859 8.66406C14.125 11.9844 15.0234 13.8203 15.8438 14.875H3.61719ZM9.75 20.5C11.1172 20.5 12.2109 19.4062 12.2109 18H7.25C7.25 19.4062 8.34375 20.5 9.75 20.5Z" fill="#FEFAFA"/>
</svg>
